<svg t="1672671389836" class="icon" viewBox="0 0 1024 1024" version="1.1" xmlns="http://www.w3.org/2000/svg" p-id="9986" width="200" height="200"><path d="M874.666667 633.173333c0.725333 0 1.152 0.085333 1.536 0.170667l-1.536-0.170667a6.4 6.4 0 0 1 5.461333 3.072l-0.938667-1.194666a6.4 6.4 0 0 1 1.706667 6.058666l0.170667-1.536a6.4 6.4 0 0 1-0.682667 2.858667l-0.170667 0.341333a6.4 6.4 0 0 1-0.768 1.024l-0.256 0.298667-213.76 214.186667a6.4 6.4 0 0 1-10.24-7.381334l1.194667-1.664 202.837333-203.264H149.333333a6.4 6.4 0 0 1-2.005333-12.458666l2.005333-0.341334h725.333334zM367.616 165.717333a6.4 6.4 0 0 1 1.194667 7.381334l-1.194667 1.664L164.693333 378.026667H874.666667a6.4 6.4 0 0 1 2.005333 12.458666l-2.005333 0.341334H148.778667a6.4 6.4 0 0 1-0.938667-0.170667l1.493333 0.170667a6.4 6.4 0 0 1-5.461333-3.072l0.938667 1.194666a6.4 6.4 0 0 1-1.706667-6.101333l-0.170667 1.578667a6.4 6.4 0 0 1 0.682667-2.858667l0.170667-0.341333a6.4 6.4 0 0 1 0.768-1.024l0.256-0.298667 213.76-214.186667a6.4 6.4 0 0 1 9.045333 0z" fill="#000" p-id="9987"></path></svg>